<svg id="a2d5e033-0ef3-4980-93b7-2f73e5db9736" data-name="Layer 1" xmlns="http://www.w3.org/2000/svg" width="865.76" height="682.89" viewBox="0 0 865.76 682.89"><g id="f0dd20d5-4fbd-4184-ab57-386e8c990168" data-name="freepik--background-simple--inject-571"><path d="M728.42,308.86c8.41-73.94-16.59-148.18-69.06-200.93-25.82-25.9-61.1-50.38-108-62.19C419.9,12.63,334.67,43,292.07,123.53S127.23,190.21,107.74,329.14s75.05,291.7,235.27,300S482.6,557.79,570.24,523.55C637.28,497.38,715.91,419.19,728.42,308.86Z" fill="#0071f2"/><path d="M728.42,308.86c8.41-73.94-16.59-148.18-69.06-200.93-25.82-25.9-61.1-50.38-108-62.19C419.9,12.63,334.67,43,292.07,123.53S127.23,190.21,107.74,329.14s75.05,291.7,235.27,300S482.6,557.79,570.24,523.55C637.28,497.38,715.91,419.19,728.42,308.86Z" fill="#fff" opacity="0.83" style="isolation:isolate"/></g><g id="b64e3f41-6311-4723-91f5-e4cddc012516" data-name="freepik--background-complete--inject-335"><path d="M630,181.17h-201s19.94-54.41,50.6-54.41,40.23,37.56,40.23,37.56,20.69-20.41,37.69-20.41,31.8,26.94,31.8,26.94S613.39,156.38,630,181.17Z" fill="#ebebeb"/><path d="M712.05,92.42H618.14S639.12,62,655.67,62s21.42,20.27,21.42,20.27,11.66-9.47,22.47-7.74S712.05,92.42,712.05,92.42Z" fill="#ebebeb"/><path d="M181.71,317.76s52.8,117.62-33.6,117.62-30.4-121.6-30.4-121.6-20-8.8,3.19-74.4,33.57-65.59,43.21-65.59c12.18,0,23.51,28.4,15.2,72C179.31,245.77,209.7,300.16,181.71,317.76Z" fill="#ebebeb"/><polygon points="140.45 513.36 148.77 336.21 157.1 513.36 140.45 513.36" fill="#a6a6a6"/><polygon points="145.38 410.48 176.78 373.8 152.16 415.33 145.38 410.48" fill="#a6a6a6"/><path d="M191.1,330.42s-24.64-9.78-44.2,24.23c-20.12,34.9,5.09,57.9,25,44.2,0,0,15.65,32.86,46.92,25S255.25,391,255.25,391,283,393,283.78,372.27s-19.54-39.11-19.54-39.11-1.18-51.63-34.81-51.24S191.1,330.42,191.1,330.42Z" fill="#dbdbdb"/><polygon points="213.97 513.36 221.01 359.75 228.06 513.36 213.97 513.36" fill="#a6a6a6"/><polygon points="218 415.63 197.34 374.39 224.03 412.01 218 415.63" fill="#a6a6a6"/><rect x="426.02" y="341.52" width="10.77" height="95.35" fill="#a6a6a6"/><rect x="621.2" y="341.52" width="10.77" height="95.35" fill="#a6a6a6"/><rect x="397.84" y="350.2" width="262.33" height="14.08" fill="#ebebeb"/><rect x="397.84" y="371.91" width="262.33" height="14.08" fill="#ebebeb"/><rect x="397.84" y="393.62" width="262.33" height="14.08" fill="#ebebeb"/><rect x="397.84" y="415.34" width="262.33" height="14.08" fill="#ebebeb"/><rect x="374.75" y="436.86" width="312.26" height="21" fill="#ebebeb"/><rect x="392.24" y="457.85" width="10.77" height="55.51" fill="#a6a6a6"/><rect x="658.73" y="457.85" width="10.77" height="55.51" fill="#a6a6a6"/></g><g id="b6c33a04-957b-4401-b8a0-4565a702599e" data-name="freepik--Shadow--inject-335"><ellipse cx="440.55" cy="612.16" rx="293.24" ry="38.19" fill="#ebebeb"/></g><g id="f02ade2b-8572-4746-92e3-9df7bb1fc911" data-name="freepik--Floor--inject-335"><rect x="115.19" y="513.36" width="650.71" height="16.37" fill="#c7c7c7"/></g><g id="b061c7b4-cc43-4241-b982-0ba5d03e094b" data-name="freepik--Plants--inject-335"><path d="M348.78,513.36H224.34s.28-18.57,12.52-23.43a16.65,16.65,0,0,1,19.5,4.64s5-34.05,27.86-34.05,33.7,29.41,33.7,29.41,5.11-8.88,17.75-7.23S348.78,513.36,348.78,513.36Z" fill="#939598"/><path d="M749.22,513.36s-3.82-17.8-11.44-20.54-12.26,5.25-12.26,5.25-1.79-17-12.59-22.1S694,481.29,694,481.29s-8.28-21.57-23.09-21.57-22.29,31.57-22.29,31.57-8.74-9.38-17.73-4.1-9,26.17-9,26.17Z" fill="#939598"/><path d="M246.64,513.36H131.89s3.77-16.17,11.39-17.32,11.14,6.35,11.14,6.35-.34-22.57,13.93-26.4,26.14,16.09,26.14,16.09,8.91-11.37,21-10.65S230.76,501,230.76,501,241.75,494.43,246.64,513.36Z" fill="#808285"/><path d="M630.21,513.36H559.72s.17-10.49,7.1-13.28a9.44,9.44,0,0,1,11,2.65s2.8-19.27,15.72-19.27,19.1,16.64,19.1,16.64a9.9,9.9,0,0,1,10.06-4.1C629.92,496.92,630.21,513.36,630.21,513.36Z" fill="#808285"/></g><g id="f9634232-97f2-4650-91da-58f08cda6b47" data-name="freepik--Sign--inject-335"><rect x="707.56" y="32.54" width="12.04" height="480.82" fill="#dbdbdb"/><rect x="676.47" y="501.3" width="74.24" height="12.04" fill="#dbdbdb"/><polygon points="763.35 91.23 763.35 157.74 663.82 157.74 663.82 91.23 713.59 41.46 763.35 91.23" fill="#0071f2"/><path d="M758.24,152.62H669V93.16l44.64-44.57,44.65,44.65Zm-88-1.33h86.66V93.7L713.59,50.37,670.26,93.7Z" fill="#2f2e41"/><polygon points="722.89 109.38 688.65 109.38 688.65 94.51 691.65 75.12 719.89 75.12 722.89 94.51 722.89 109.38" fill="#2f2e41"/><rect x="690.98" y="109.38" width="3.71" height="6.89" fill="#2f2e41"/><rect x="716.86" y="109.38" width="3.71" height="6.89" fill="#2f2e41"/><path d="M694.62,102a1.8,1.8,0,1,1-1.8-1.8,1.79,1.79,0,0,1,1.8,1.8Z" fill="#0071f2"/><path d="M720.51,102a1.8,1.8,0,1,1-1.79-1.8,1.79,1.79,0,0,1,1.79,1.8Z" fill="#0071f2"/><polygon points="716.92 81.83 694.62 81.83 692.64 94.51 718.9 94.51 716.92 81.83" fill="#0071f2"/><rect x="699.37" y="76.8" width="12.8" height="2.46" fill="#0071f2"/><path d="M734.22,93.83a2.63,2.63,0,1,0-2.63,2.63,2.63,2.63,0,0,0,2.63-2.63Z" fill="#2f2e41"/><path d="M738.49,100.93v.22h0s-.4,2.72-.77,4.17a1,1,0,0,1-1.19.59,1.23,1.23,0,0,1-.78-1.37c.21-1.13.38-2.25.55-3.38a.34.34,0,0,0,0-.28c-.41-.46-.84-.88-1.27-1.33h0v.19c.15,1.08.34,2.16.48,3.25.09.74.12,1.55.18,2.24v.56a22.77,22.77,0,0,0,.22,2.4,7.83,7.83,0,0,0,.29,2c.47,1.31.87,2.63,1.32,4a2.16,2.16,0,0,1,.09.62,1.36,1.36,0,0,1-1.25,1.14A1.18,1.18,0,0,1,735,115c-.51-1.55-1-3.1-1.55-4.65,0-.14,0-.28-.07-.43,0-.59-.11-1.17-.14-1.76,0-.19,0-.28-.27-.27a1.41,1.41,0,0,1-.58-.09c-.17,0-.25,0-.34.16-.38.62-.78,1.23-1.15,1.85a.92.92,0,0,0-.11.48c.16,1.43.3,2.84.53,4.24a1.27,1.27,0,0,1-1.33,1.55,1.18,1.18,0,0,1-1.26-1c-.21-1.75-.41-3.49-.63-5.22a1.16,1.16,0,0,1,.19-.79c.66-1,1.31-2.1,2-3.09a.59.59,0,0,0,.09-.31l-.37-2.37c-.09-.56-.17-1.13-.26-1.75a4.83,4.83,0,0,0-.51.68,1,1,0,0,1-1.24.43l-4.24-1a1,1,0,0,1-.8-1.23l0-.08a1,1,0,0,1,1.23-.83h0l3.22.79a.3.3,0,0,0,.37-.16L729.49,98a.9.9,0,0,1,.27-.28,5.67,5.67,0,0,1,2.9-.71,10.25,10.25,0,0,0,2.07-.14.94.94,0,0,1,.84.28c.85.87,1.72,1.73,2.6,2.58A1.16,1.16,0,0,1,738.49,100.93Z" fill="#2f2e41"/><path d="M678.66,127.76a.58.58,0,0,1,.78,0,3.36,3.36,0,0,0,2,.82,2.35,2.35,0,0,0,1.34-.38,1,1,0,0,0,.44-.78.53.53,0,0,0-.09-.34.84.84,0,0,0-.31-.31,4.64,4.64,0,0,0-1.45-.51h0a5.91,5.91,0,0,1-1.38-.4,2.3,2.3,0,0,1-1-.83,1.5,1.5,0,0,1-.25-.87,2,2,0,0,1,.85-1.55,3.1,3.1,0,0,1,1.84-.56,4.13,4.13,0,0,1,2.31.85.57.57,0,0,1,.15.76.54.54,0,0,1-.75.16h0a3,3,0,0,0-1.7-.68,2.1,2.1,0,0,0-1.19.35.83.83,0,0,0-.4.68.51.51,0,0,0,0,.3,1.28,1.28,0,0,0,.29.28,3.9,3.9,0,0,0,1.33.46h0a6.25,6.25,0,0,1,1.47.45,2.55,2.55,0,0,1,1.07.88,1.77,1.77,0,0,1,.25.9,2.13,2.13,0,0,1-.92,1.66,3.48,3.48,0,0,1-2,.6,4.64,4.64,0,0,1-2.73-1.07.57.57,0,0,1-.11-.78Z" fill="#2f2e41"/><path d="M685.64,125.78a3.93,3.93,0,0,1,4-3.82,3.85,3.85,0,0,1,2.32.84.62.62,0,0,1,.11.85.63.63,0,0,1-.85.11,2.56,2.56,0,0,0-1.72-.59,2.79,2.79,0,0,0-1.9.77,2.6,2.6,0,0,0,0,3.68l0,0a2.82,2.82,0,0,0,1.9.76,2.66,2.66,0,0,0,1.72-.59.61.61,0,0,1,.74,1,4,4,0,0,1-6.36-3Z" fill="#2f2e41"/><path d="M694.17,129.06v-6.19a.56.56,0,0,1,.56-.58h0a.58.58,0,0,1,.59.55v2.57h2.75v-2.54a.56.56,0,0,1,.56-.58h0a.57.57,0,0,1,.59.55v6.22a.58.58,0,0,1-.57.58h0a.57.57,0,0,1-.59-.56v-2.57h-2.75v2.55a.58.58,0,0,1-.58.58h0a.57.57,0,0,1-.59-.56Z" fill="#2f2e41"/><path d="M707.25,123.11a3.92,3.92,0,0,1,0,5.37,3.49,3.49,0,0,1-2.54,1.13,3.61,3.61,0,0,1-2.62-1.13,4,4,0,0,1,0-5.37,3.55,3.55,0,0,1,2.62-1.15A3.44,3.44,0,0,1,707.25,123.11Zm-.14,2.67a2.76,2.76,0,0,0-.73-1.85,2.27,2.27,0,0,0-3.21-.18c-.06.06-.12.11-.18.18a2.72,2.72,0,0,0,0,3.71,2.27,2.27,0,0,0,3.21.18,1.53,1.53,0,0,0,.18-.18A2.74,2.74,0,0,0,707.11,125.78Z" fill="#2f2e41"/><path d="M716.16,123.11a3.86,3.86,0,0,1,0,5.37,3.49,3.49,0,0,1-2.54,1.13,3.58,3.58,0,0,1-2.6-1.13,4,4,0,0,1,0-5.37,3.53,3.53,0,0,1,2.6-1.15A3.38,3.38,0,0,1,716.16,123.11Zm-.14,2.67a2.76,2.76,0,0,0-.71-1.85,2.28,2.28,0,0,0-3.23-.17,1.37,1.37,0,0,0-.17.17,2.7,2.7,0,0,0-.73,1.85,2.63,2.63,0,0,0,.73,1.86,2.28,2.28,0,0,0,3.23.17,1.37,1.37,0,0,0,.17-.17A2.72,2.72,0,0,0,716,125.78Z" fill="#2f2e41"/><path d="M719.27,129.06v-6.19a.59.59,0,0,1,.59-.58h0a.59.59,0,0,1,.6.58v5.67h2.88a.6.6,0,0,1,.58.6h0a.59.59,0,0,1-.58.57h-3.48a.58.58,0,0,1-.59-.58Z" fill="#2f2e41"/><path d="M728.4,129.06v-6.19a.56.56,0,0,1,.56-.58h1.56a2,2,0,0,1,2,2,2,2,0,0,1-.41,1.22,2.26,2.26,0,0,1-1.19,4.19H729a.58.58,0,0,1-.62-.55Zm1.18-4h.91a.87.87,0,0,0,.84-.87.85.85,0,0,0-.84-.84h-.91Zm0,3.37h1.33a1.08,1.08,0,0,0,1.08-1.08v0a1.1,1.1,0,0,0-1.08-1.1h-1.33Z" fill="#2f2e41"/><path d="M737.83,129.61a3.1,3.1,0,0,1-3.1-3.1v-3.78a.57.57,0,0,1,.56-.58h0a.58.58,0,0,1,.59.58h0v3.78a1.9,1.9,0,0,0,3.79,0v-3.78a.57.57,0,0,1,.56-.58h0a.58.58,0,0,1,.59.55v3.81A3.11,3.11,0,0,1,737.83,129.61Z" fill="#2f2e41"/><path d="M743.17,127.76a.57.57,0,0,1,.77,0,3.39,3.39,0,0,0,2,.82,2.24,2.24,0,0,0,1.33-.38,1,1,0,0,0,.46-.78.48.48,0,0,0-.11-.34.89.89,0,0,0-.3-.31,4.79,4.79,0,0,0-1.46-.51h0a5.76,5.76,0,0,1-1.36-.4,2.36,2.36,0,0,1-1-.83,1.72,1.72,0,0,1-.25-.87,2,2,0,0,1,.85-1.55,3.12,3.12,0,0,1,1.84-.56,4.11,4.11,0,0,1,2.32.85.55.55,0,0,1,.14.76.53.53,0,0,1-.74.16h0a3.07,3.07,0,0,0-1.71-.68,2.1,2.1,0,0,0-1.19.35.83.83,0,0,0-.4.68.46.46,0,0,0,.08.3.93.93,0,0,0,.28.28,3.9,3.9,0,0,0,1.33.46h0a6.4,6.4,0,0,1,1.47.45,2.46,2.46,0,0,1,1.06.88,1.67,1.67,0,0,1,.25.9,2,2,0,0,1-.91,1.66,3.37,3.37,0,0,1-2,.6,4.62,4.62,0,0,1-2.72-1.07.55.55,0,0,1-.17-.77Z" fill="#2f2e41"/><path d="M701.35,141.44a.6.6,0,0,1-.37.75h-.23a.88.88,0,0,1-.42-.11,1.33,1.33,0,0,1-.34-.37,3.16,3.16,0,0,1-.22-1.29.92.92,0,0,0-.12-.45.87.87,0,0,0-.33-.3,2.18,2.18,0,0,0-.58-.27h-1.29v2.31a.6.6,0,0,1-.6.59.59.59,0,0,1-.59-.59h0v-6.27a.59.59,0,0,1,.59-.59h1.9a2.27,2.27,0,0,1,1.44,4,1.52,1.52,0,0,1,.37.39,1.93,1.93,0,0,1,.36,1.14,2.29,2.29,0,0,0,0,.64A.53.53,0,0,1,701.35,141.44Zm-1.55-4.27a1.1,1.1,0,0,0-1.1-1.1h-1.25v2.28h1.3a1.08,1.08,0,0,0,1.12-1v-.1Z" fill="#2f2e41"/><path d="M708.75,135.84a3.88,3.88,0,0,1,0,5.39,3.51,3.51,0,0,1-2.54,1.13,3.66,3.66,0,0,1-2.6-1.13,4,4,0,0,1,0-5.39,3.55,3.55,0,0,1,2.6-1.13A3.49,3.49,0,0,1,708.75,135.84Zm-.14,2.7a2.77,2.77,0,0,0-.71-1.86,2.29,2.29,0,0,0-3.24-.17l-.17.17a2.67,2.67,0,0,0-.72,1.86,2.63,2.63,0,0,0,.72,1.84,2.26,2.26,0,0,0,3.19.21,2.18,2.18,0,0,0,.22-.21,2.67,2.67,0,0,0,.71-1.84Z" fill="#2f2e41"/><path d="M714.47,142.36a3.1,3.1,0,0,1-3.09-3.1v-3.79a.59.59,0,0,1,.59-.59h0a.6.6,0,0,1,.6.59v3.79a1.89,1.89,0,0,0,3.78,0v-3.79a.59.59,0,0,1,.59-.59h0a.57.57,0,0,1,.57.58h0v3.79A3.1,3.1,0,0,1,714.47,142.36Z" fill="#2f2e41"/><path d="M724.32,136.11h-1.69v5.66a.59.59,0,0,1-.59.59.6.6,0,0,1-.59-.59v-5.66h-1.67a.6.6,0,0,1-.59-.59v0a.59.59,0,0,1,.56-.59h4.57a.61.61,0,0,1,.59.59A.63.63,0,0,1,724.32,136.11Z" fill="#2f2e41"/><path d="M726.65,141.77V135.5a.59.59,0,0,1,.56-.59h3.5a.61.61,0,0,1,0,1.2h-2.88V138h2.48a.6.6,0,0,1,.5.69.62.62,0,0,1-.5.5h-2.48v2h2.88a.59.59,0,0,1,0,1.18h-3.48a.58.58,0,0,1-.58-.57Z" fill="#2f2e41"/><path d="M716,60.74a2.37,2.37,0,1,1-2.38-2.35h0A2.35,2.35,0,0,1,716,60.72Z" fill="#dbdbdb"/><path d="M716,147.14a2.37,2.37,0,1,1-2.37-2.37h0a2.36,2.36,0,0,1,2.37,2.34Z" fill="#dbdbdb"/></g><path d="M278.68,571.46l-2.84,2.86s-5.73,2.19-2.31,8.92c0,0,3.51,5.16,13.24,4.64l.3-3.88.15-4S283.09,579.19,278.68,571.46Z" fill="#d1d3d4"/><path d="M285.36,566.11l-7.17,5.79s3.31,7.45,11,8.83l7.45-8S287.3,574,285.36,566.11Z" fill="#2f2e41"/><path d="M336.56,338.25l8.73,8.72,3.4,11.39,5.74,33.38,2.46,47.47s-1.77,8.48-8.61,4.24l-8.21-2.05Z" fill="#2f2e41"/><path d="M358.63,453.55l-17.25-5.46,1.52-5.41.23-1.49,4.27.58c.83,1.6,2.77,3.3,4.44,5.25C354.49,450.14,356.55,452.33,358.63,453.55Z" fill="#0071f2"/><path d="M358.63,453.55l-17.25-5.46,1.52-5.41.23-1.49,4.27.58c.83,1.6,2.77,3.3,4.44,5.25C354.49,450.14,356.55,452.33,358.63,453.55Z" opacity="0.2"/><path d="M569.78,447.71s1.56,1.73,4.86-.69c0,0,10.92-9.2,6.76-13.36C581.4,433.66,570.13,435.4,569.78,447.71Z" fill="#0071f2"/><path d="M569.78,447.71s-.52-10.93,11.62-14L563.71,417s-6.59-7.46-9-11.62a50.74,50.74,0,0,0-4.34,12.49c-1.73,7.8-2.31,10.26-3.87,12.51l9.77,7.43s4.34,3.82,6.77,4.86Z" fill="#0071f2"/><path d="M569.78,447.71s-.52-10.93,11.62-14L563.71,417s-6.59-7.46-9-11.62a50.74,50.74,0,0,0-4.34,12.49c-1.73,7.8-2.31,10.26-3.87,12.51l9.77,7.43s4.34,3.82,6.77,4.86Z" fill="#fff" opacity="0.2"/><path d="M468.84,355.44s5.9-4.51,7.8-4.16c0,0-4,9.19-7.11,10.75A34.41,34.41,0,0,1,468.84,355.44Z" fill="#2f2e41"/><path d="M468.84,355.44s5.9-4.51,7.8-4.16c0,0-4,9.19-7.11,10.75A34.41,34.41,0,0,1,468.84,355.44Z" opacity="0.4"/><path d="M469.53,362s1.43,18.43,2.64,20.68c0,0,5-22.07,13-37.85,0,0-5.38,2.25-7.11,2.78,0,0-.69.17-1.73,4.33C476.3,352,472.31,360,469.53,362Z" fill="#2f2e41"/><path d="M425.27,573.28s-4.41,0-8.28,5.52l-2.2,4.14s-1.11,3,4.69,6.35l31.73,19.87,1.38-15.73A10.5,10.5,0,0,1,444,589l-5.52-7.45Z" fill="#0071f2"/><path d="M425.27,573.28s-4.41,0-8.28,5.52l-2.2,4.14s-1.11,3,4.69,6.35l31.73,19.87,1.38-15.73A10.5,10.5,0,0,1,444,589l-5.52-7.45Z" opacity="0.2"/><path d="M412.3,591.49s-3-5.52,2.76-6.9c0,0,0,1.94,4.42,4.7l36.7,23.18-6.9.82S421.69,599.22,412.3,591.49Z" fill="#2f2e41"/><path d="M426.65,571.9s-5.52,6.07-.55,9.38c0,0,6.35,6.07,14.9-1.93l-9.62-4.51A17.66,17.66,0,0,1,426.65,571.9Z" fill="#d1d3d4"/><path d="M551.24,601.12s-5.77,14.06,4.3,17.11c0,0,5.19,1.83,14.8-.76,0,0,24.57-5.34,32.81-11.6,0,0,10.68-5.64,0-9.15,0,0-8.7,13.74-32.54,13.93a22.39,22.39,0,0,1-7.7-1.24A26.66,26.66,0,0,1,551.24,601.12Z" fill="#2f2e41"/><path d="M552.49,594.58l.16,2.75a5.87,5.87,0,0,1,4.42,2.29s7.77,4.52,11.44-5.65a9.59,9.59,0,0,0,1.83-5.49l-1.68-1.22a4.11,4.11,0,0,1-3.39,2.5S557.36,589.77,552.49,594.58Z" fill="#d1d3d4"/><path d="M524.84,464.58l.57-9.35,8.35-14.89,1,1.32s-6.06,21.6-8.74,22.18A2.11,2.11,0,0,1,524.84,464.58Z" fill="#0071f2"/><path d="M524.84,464.58l.57-9.35,8.35-14.89,1,1.32s-6.06,21.6-8.74,22.18A2.11,2.11,0,0,1,524.84,464.58Z" opacity="0.8"/><path d="M525.17,520.88l-17.83-24.95S490.86,528.18,472,535.82l-26.54,45.44-14-6.42s-8.33-2.26-2.78-8l17.34-27.75s30.18-48.91,32.26-53.76l39.72-19.26,4-2.77s.87,3.47,4.16.52l22.6,41a12.07,12.07,0,0,1,1.44,4.49,31.89,31.89,0,0,1-.77,10.35,25.53,25.53,0,0,0-.23,10.19c2,10.91,6.68,34.28,10.92,40.9a11.93,11.93,0,0,1,1,1.87c1,2.27,3.27,7.47,5.64,9.51a6.59,6.59,0,0,1,1.91,2.5c.7,1.71.76,4.06-3.3,5.11a26.79,26.79,0,0,0-10.41,3.46s-6.59,5.73-6.41,0c0,0,1.73-2.94-1.22-8.84s-7.63-14-7.63-14-13.3-21.13-12.55-43A10.43,10.43,0,0,0,525.17,520.88Z" fill="#2f2e41"/><path d="M525.17,520.88l-17.83-24.95S490.86,528.18,472,535.82l-26.54,45.44-14-6.42s-8.33-2.26-2.78-8l17.34-27.75s30.18-48.91,32.26-53.76l39.72-19.26,4-2.77s.87,3.47,4.16.52l22.6,41a12.07,12.07,0,0,1,1.44,4.49,31.89,31.89,0,0,1-.77,10.35,25.53,25.53,0,0,0-.23,10.19c2,10.91,6.68,34.28,10.92,40.9a11.93,11.93,0,0,1,1,1.87c1,2.27,3.27,7.47,5.64,9.51a6.59,6.59,0,0,1,1.91,2.5c.7,1.71.76,4.06-3.3,5.11a26.79,26.79,0,0,0-10.41,3.46s-6.59,5.73-6.41,0c0,0,1.73-2.94-1.22-8.84s-7.63-14-7.63-14-13.3-21.13-12.55-43A10.43,10.43,0,0,0,525.17,520.88Z" fill="#fff" opacity="0.2"/><path d="M533.22,333.62l-.41.4a6.62,6.62,0,0,0-1.51,2.36,2.78,2.78,0,0,0-.21.5,23,23,0,0,0-1.24,5.33,4.86,4.86,0,0,0-.05.56c-3.64,1.9-8.91,0-8.91,0,5.24-6-1-12.88-1-12.88a16.1,16.1,0,0,1-4.32-11.21c1.48,2.67,3.26,2.13,3.88,1.82l.25-.15a30.73,30.73,0,0,0,1.78,5s0,.06,0,.08C526.71,334.42,533.22,333.62,533.22,333.62Z" fill="#f9b499"/><path d="M514.53,628.46c-21.23,5.1-45.1-3.48-45.1-3.48-3.48-1-2.67,1.43-2.67,1.43,3.07,7.76-19.18.62-19.18.62-5.31-2.67,2.45-21.23,2.45-21.23l.25,0c.41.73,1.49.64,1.49.64l25.38-2.77a6,6,0,0,0,3-3.18c12.86,16.18,31.93,18.21,31.93,18.21,8.79.6,8.36,3.67,8.36,3.67C521.68,627.64,514.53,628.46,514.53,628.46Z" fill="#0071f2"/><path d="M328,586v15s.41,8.72,7.27,12.46c0,0,11.42,4.78,6.23,8.1,0,0-2.08,4.78-18.07,2.91,0,0-14.12-3.74-15.58-24.72l-2.5-21.5s9.77,0,21.07,7.24A1.51,1.51,0,0,0,328,586Z" fill="#0071f2"/><path d="M480.15,600.45a6,6,0,0,1-3,3.18l-25.38,2.77s-1.08.09-1.49-.64c-.23-.43-.23-1.16.39-2.4,0,0,.27-2.76-2.22-6.62,0,0-1.37.27-1.64-8.56,0,0-5-28.71-3.87-48.56l-1.66-47.76s-3.59-1.93-8.56-15.16l-12.56-28.93s22-17.47,27.19-49.17a24.89,24.89,0,0,0,8.55-1.66l6.36,8.29,13,76.43s3.48,12.7-1.83,22a1.89,1.89,0,0,0,.34,2.33c1.26,1.22,2.65,3.79.12,8.5,0,0-1.12,1.94,1.1,5a16.25,16.25,0,0,1,1.1,10.22l-3.32,32s-.54,6.06,2.76,8.82c0,0,5.26,6.07,0,9.93,0,0-3.3,2.49,1.39,6.9C476.88,587.35,482.23,595.23,480.15,600.45Z" fill="#2f2e41"/><path d="M480.15,600.45a6,6,0,0,1-3,3.18l-25.38,2.77s-1.08.09-1.49-.64c-.23-.43-.23-1.16.39-2.4,0,0,.27-2.76-2.22-6.62,0,0-1.37.27-1.64-8.56,0,0-5-28.71-3.87-48.56l-1.66-47.76s-3.59-1.93-8.56-15.16l-12.56-28.93s22-17.47,27.19-49.17a24.89,24.89,0,0,0,8.55-1.66l6.36,8.29,13,76.43s3.48,12.7-1.83,22a1.89,1.89,0,0,0,.34,2.33c1.26,1.22,2.65,3.79.12,8.5,0,0-1.12,1.94,1.1,5a16.25,16.25,0,0,1,1.1,10.22l-3.32,32s-.54,6.06,2.76,8.82c0,0,5.26,6.07,0,9.93,0,0-3.3,2.49,1.39,6.9C476.88,587.35,482.23,595.23,480.15,600.45Z" opacity="0.2"/><path d="M475.15,481.61s-14.62-21.8-19.32-84.72c0,0-1.65-21.32-.41-36,0,0,1.28-49.47-6.57-81.85a34.22,34.22,0,0,1,4.22-6.87s13.53,66.5,16.84,134.39Z" fill="#0071f2"/><path d="M475.15,481.61s-14.62-21.8-19.32-84.72c0,0-1.65-21.32-.41-36,0,0,1.28-49.47-6.57-81.85a34.22,34.22,0,0,1,4.22-6.87s13.53,66.5,16.84,134.39Z" opacity="0.2"/><path d="M447.35,394.46s2.21,28.15-28.7,55.19l-11.31,33.67s-6.35,23.45-13.8,26.21l-19.6,13.53s-21.8,17.93-28.7,29c0,0-2.76,12.7-7.17,14.9l-4.64,8.77A3.68,3.68,0,0,0,333,577c-.34,2.3-1.84,10-6.54,9a38.86,38.86,0,0,0-21.25-6.89S337,502.36,368.7,487.46a82.32,82.32,0,0,1,6.35-12.7l30.08-77.54Z" fill="#2f2e41"/><polygon points="409.31 476.43 432.72 476.7 420.3 448.26 418.65 449.65 409.31 476.43" fill="#0071f2"/><polygon points="409.31 476.43 432.72 476.7 420.3 448.26 418.65 449.65 409.31 476.43" opacity="0.2"/><path d="M418,239.92s8,17.48,16,18.08c0,0,4.71.37,5.93,7.86l-3.5,43.5-4.73,45.1L428,399s3.45,2.07,11.87-.14c0,0,12.83,1,16-1.93,0,0-1.79-19-.41-36,0,0,.55-39.33-1.79-54.78,0,0-4.56-35.46-11.32-47.88a7.82,7.82,0,0,1-.41-3.86l.41-4-1.65-1.25a29.28,29.28,0,0,0-.61,3s.25,3.49-2.13,2.76c-1.87-.93-3.81-2-5.8-3.24A69.67,69.67,0,0,1,418,239.92Z" fill="#0071f2"/><path d="M418,239.92s8,17.48,16,18.08c0,0,4.71.37,5.93,7.86l-3.5,43.5-4.73,45.1L428,399s3.45,2.07,11.87-.14c0,0,12.83,1,16-1.93,0,0-1.79-19-.41-36,0,0,.55-39.33-1.79-54.78,0,0-4.56-35.46-11.32-47.88a7.82,7.82,0,0,1-.41-3.86l.41-4-1.65-1.25a29.28,29.28,0,0,0-.61,3s.25,3.49-2.13,2.76c-1.87-.93-3.81-2-5.8-3.24A69.67,69.67,0,0,1,418,239.92Z" fill="#fff" opacity="0.7"/><ellipse cx="440.98" cy="210.98" rx="19.1" ry="27.81" fill="#f9b499"/><path d="M414.06,226.71l-.55,7.38s9.63,14.85,24.48,20.85c0,0,2.21.95,2.21-2.68A16.06,16.06,0,0,1,446.44,241s-8.65,3.05-17.17-5.64c0,0-5.79-5.11-6.2-15.59a10.56,10.56,0,0,1-2.46-1.09A11.64,11.64,0,0,1,414.06,226.71Z" fill="#f9b499"/><path d="M403.75,241.3l-31.46,94c-14.9,25.67-10.35,64.17-10.35,64.17,3.31,48.84-7.45,70.16-7.45,70.16-2.07,6.62,3.1,5.17,3.1,5.17,5.8,2.28,25.25,2.28,25.25,2.28,7,1.65,5.8-3.52,5.8-3.52l26.7-5.17S424.44,429.78,428,399c0,0,11.1-91,11.86-132.73a7.15,7.15,0,0,0-.08-1.22c-.3-2-1.62-7-7.29-7.41,0,0-5.8,1.24-11.39-5.17C421.13,252.48,411.61,239.23,403.75,241.3Z" fill="#0071f2"/><circle cx="433.46" cy="265.06" r="2.62" opacity="0.2"/><circle cx="432.15" cy="303.73" r="2.62" opacity="0.2"/><circle cx="425.46" cy="350.53" r="2.62" opacity="0.2"/><circle cx="420.23" cy="398.2" r="2.62" opacity="0.2"/><path d="M521.43,325.33a26.53,26.53,0,0,1-2-4.81l.25-.15A30.73,30.73,0,0,0,521.43,325.33Z" fill="#f9b499"/><path d="M511.5,343.13s14.75,32.6,18,56.36a49.94,49.94,0,0,1,.5,16.07s-6.44,41.33-8.13,47.76c0,0,.89,2.55,2.93,1.26A3.84,3.84,0,0,0,526.5,461a46.75,46.75,0,0,0-.77-5.49s6.07-3.29,9.71-22.89c0,0,3.47-19.25,5.72-43.53,0,0,6.59-27.88-11.37-46.37,0,0-2.81,1.82-8.9.07C520.89,342.79,517.23,344.69,511.5,343.13Z" fill="#0071f2"/><path d="M511.5,343.13s14.75,32.6,18,56.36a49.94,49.94,0,0,1,.5,16.07s-6.44,41.33-8.13,47.76c0,0,.89,2.55,2.93,1.26A3.84,3.84,0,0,0,526.5,461a46.75,46.75,0,0,0-.77-5.49s6.07-3.29,9.71-22.89c0,0,3.47-19.25,5.72-43.53,0,0,6.59-27.88-11.37-46.37,0,0-2.81,1.82-8.9.07C520.89,342.79,517.23,344.69,511.5,343.13Z" fill="#fff" opacity="0.7"/><path d="M544.13,349.51s-5,.32-14.34-6.79c0,0,.67.69,1.79,2,3.87,4.5,12,17.12,10.28,36.57L537,423.11s-3.07,17.49-4.11,20.78c0,0-5.53,19.2-6.77,19.95,0,0,7.46,16,9.37,17.86,0,0,1-25.67,5.2-36.25a68.43,68.43,0,0,0,9.54-26.53s1.74-8.5,4.51-13.53c0,0,2.63-7.55-6-30.63a7.38,7.38,0,0,1-.36-3.78C548.92,367.43,549.49,359.17,544.13,349.51Z" fill="#0071f2"/><path d="M544.13,349.51s-5,.32-14.34-6.79c0,0,.67.69,1.79,2,3.87,4.5,12,17.12,10.28,36.57L537,423.11s-3.07,17.49-4.11,20.78c0,0-5.53,19.2-6.77,19.95,0,0,7.46,16,9.37,17.86,0,0,1-25.67,5.2-36.25a68.43,68.43,0,0,0,9.54-26.53s1.74-8.5,4.51-13.53c0,0,2.63-7.55-6-30.63a7.38,7.38,0,0,1-.36-3.78C548.92,367.43,549.49,359.17,544.13,349.51Z" opacity="0.4"/><path d="M581.57,451s-2.08,1.91-5.2-1.73l-5.72-6.76s2.77-6.77,8.84-8.33c0,0,14,6.77,14.22,11.27,0,0-1.38,5.9-4,5.55,0,0-1.21,2.43-3.12,2.61,0,0-1.81,3-3.92,2.81a1.93,1.93,0,0,1-1.69-1.71,1.66,1.66,0,0,1,1.28-1.8S581.42,452.55,581.57,451Z" fill="#f9b499"/><path d="M575.16,440.6a9.19,9.19,0,0,0,5.89.87" fill="none" stroke="#f7a48b" stroke-miterlimit="10"/><path d="M589.43,451.48a1.29,1.29,0,0,1-.89-.53,1.73,1.73,0,0,1,.06-1.55,5.1,5.1,0,0,0,.32-3.62l.92-.31a6,6,0,0,1-.38,4.38.86.86,0,0,0-.09.58,1.18,1.18,0,0,0,.56.17Z" fill="#f7a48b"/><path d="M585.12,454.16c-2.43,0-3.09-.65-3.27-1a2.23,2.23,0,0,1-.53-2.08c.4-1.23,2-1.72,2.2-1.77l.27.94c-.36.1-1.34.5-1.54,1.13a1.34,1.34,0,0,0,.4,1.22l.08.15s.33.43,2.36.43c.42,0,.9,0,1.47-.07l0,.49-.43.56A7.14,7.14,0,0,1,585.12,454.16Z" fill="#f7a48b"/><path d="M521.91,463.32S519.52,474,518,478.53a7.07,7.07,0,0,0-.31,2.74c.29,3.74.54,13.27-4.48,12.57L476,485l-.73-3.34-4.45-58.83s-8.52-36,17.84-85.08c0,0,10-4.68,15.92.87,0,0,4.37,3.81,7,4.51,0,0,15.79,35.9,18,56.36,0,0,2.43,11.1-.17,21C529.37,420.48,524,454.82,521.91,463.32Z" fill="#0071f2"/><path d="M521.91,463.32S519.52,474,518,478.53a7.07,7.07,0,0,0-.31,2.74c.29,3.74.54,13.27-4.48,12.57L476,485l-.73-3.34-4.45-58.83s-8.52-36,17.84-85.08c0,0,10-4.68,15.92.87,0,0,4.37,3.81,7,4.51,0,0,15.79,35.9,18,56.36,0,0,2.43,11.1-.17,21C529.37,420.48,524,454.82,521.91,463.32Z" opacity="0.4"/><path d="M511.33,377l-13,25.49s-4.33,7.81-10.92,6.77l10.06-46.83S508.21,368.27,511.33,377Z" fill="#2f2e41"/><path d="M551.06,599.53a2.71,2.71,0,0,1,1.59-2.2,5.39,5.39,0,0,1,3.79,1.53,4.47,4.47,0,0,0,2.15,1.25c2.93.65,9.32.53,11.75-11.63,0,0,23.65,8.7,32.81,8.24,0,0-8.56,14.75-32.64,14.23,0,0-8.92,1.21-18.23-8A3.76,3.76,0,0,1,551.06,599.53Z" fill="#0071f2"/><path d="M551.06,599.53a2.71,2.71,0,0,1,1.59-2.2,5.39,5.39,0,0,1,3.79,1.53,4.47,4.47,0,0,0,2.15,1.25c2.93.65,9.32.53,11.75-11.63,0,0,23.65,8.7,32.81,8.24,0,0-8.56,14.75-32.64,14.23,0,0-8.92,1.21-18.23-8A3.76,3.76,0,0,1,551.06,599.53Z" opacity="0.2"/><path d="M308.27,316.88s-10.53,11.74-15.94,16.25c0,0-9.94,7.52-10.24,31.9v52.66s-2.1,19,.91,22.27c0,0,27.08,16,53.56,16.85,0,0,3.31.31,4.82-8.72a100,100,0,0,0,3.31-44.84s-1.51-8.13.6-19.86c0,0,3.31-17.16-8.73-45.14l-15.95-16.86Z" fill="#0071f2"/><path d="M308.27,316.88s-10.53,11.74-15.94,16.25c0,0-9.94,7.52-10.24,31.9v52.66s-2.1,19,.91,22.27c0,0,27.08,16,53.56,16.85,0,0,3.31.31,4.82-8.72a100,100,0,0,0,3.31-44.84s-1.51-8.13.6-19.86c0,0,3.31-17.16-8.73-45.14l-15.95-16.86Z" opacity="0.1"/><path d="M345.29,347s2.11-7.22,3.91-12.34c0,0-.86,1.48-6.32-.6,0,0-2.05-1.32-6.32,4.22Z" fill="#0071f2"/><path d="M345.29,347s2.11-7.22,3.91-12.34c0,0-.86,1.48-6.32-.6,0,0-2.05-1.32-6.32,4.22Z" opacity="0.1"/><path d="M347.4,441.77s6.39,11.29,13.54,12.64c0,0,3,2.1,1.2-7.83,0,0-4.21-54.17-11.43-85.16a15,15,0,0,1-3-4.42s4.55,21.11,5.38,36.22l1.66,45.32S355.83,444.37,347.4,441.77Z" fill="#0071f2"/><path d="M347.4,441.77s6.39,11.29,13.54,12.64c0,0,3,2.1,1.2-7.83,0,0-4.21-54.17-11.43-85.16a15,15,0,0,1-3-4.42s4.55,21.11,5.38,36.22l1.66,45.32S355.83,444.37,347.4,441.77Z" fill="#0071f2"/><path d="M347.4,441.77s6.39,11.29,13.54,12.64c0,0,3,2.1,1.2-7.83,0,0-4.21-54.17-11.43-85.16a15,15,0,0,1-3-4.42s4.55,21.11,5.38,36.22l1.66,45.32S355.83,444.37,347.4,441.77Z" opacity="0.1"/><path d="M342.9,442.68s12,37.88,14.07,57.95c0,0,7.25,32.71-7.45,34.57a91.4,91.4,0,0,1-25,23.39s-22.35,18-34.36,13.45c0,0-8.28-2.49-3.52-11,0,0,3.73-9.11,12.83-13.45l13.16-25.83a107.18,107.18,0,0,0,10.81-62.2l-.58-4.49,13.74,1.71s3.5-.21,4.82-8.72Z" fill="#2f2e41"/><path d="M342.9,442.68s12,37.88,14.07,57.95c0,0,7.25,32.71-7.45,34.57a91.4,91.4,0,0,1-25,23.39s-22.35,18-34.36,13.45c0,0-8.28-2.49-3.52-11,0,0,3.73-9.11,12.83-13.45l13.16-25.83a107.18,107.18,0,0,0,10.81-62.2l-.58-4.49,13.74,1.71s3.5-.21,4.82-8.72Z" opacity="0.3"/><path d="M288.73,601.14s-.9,8.55,2.48,9.9c0,0,7.42,3.15,12.37.45a10.16,10.16,0,0,1,3.64-1.24,4.35,4.35,0,0,0,3.7-5.27l-1.27-5.64S304.72,602.24,288.73,601.14Z" fill="#2f2e41"/><path d="M337.93,637.86c-5.17,4.76-27.95,2.26-27.95,2.26l-23-6c-7.65-1.88-2.22-9.3-2.22-9.3.93.49,14.1,7.34,27.68,10.53C312.47,635.37,330.69,639.31,337.93,637.86Z" fill="#2f2e41"/><path d="M265.08,578.87s-1.45,3.93.83,6.62l19.66,25.87s3.52,9.73.2,11c0,0-5.38-3.31-18.42-22.14l-8.48-12.63S253.49,580.94,265.08,578.87Z" fill="#2f2e41"/><path d="M275.84,574.32s-3.1-3.32-6.62,1.44c0,0-1,3.11-4.14,3.11a6.08,6.08,0,0,0,.83,6.62l19,25a3.66,3.66,0,0,1,4.26-2.46,17.8,17.8,0,0,1-.28-6.88s-2.16-.9-.81-3.36c0,0,2.5-1,.55-3.86,0,0-3-2.59-2-6.21,0,0-9.84,1.14-13.25-6C273.46,581.77,271.39,576.59,275.84,574.32Z" fill="#0071f2"/><path d="M340.21,314.34l-3.65,6.45-2.71,8.43S328.54,331,321.73,319c0,0-1.71-3.91-3.55-4.44l8.39,1s5.76,1.57,5.24-6.81c0,0-2.78-7.19,1-6.52C332.84,302.26,335,310.15,340.21,314.34Z" fill="#f9b499"/><path d="M282,424.36a92.72,92.72,0,0,1,3.67-13.1s4.19-8.12.53-28.29c0,0-8.12-29.6,4.71-43.75,0,0,10.74-13.1,26.46-5,0,0,10.48,6,7.6,22.27l-1.05,29.34s14.93-19.65,5.5-51.87c0,0-3-12.38-28.66-9.06,0,0-5,5.35-8.45,8.21l-4.86,3.5a16.78,16.78,0,0,0-5.6,6.94,108.38,108.38,0,0,0-8.31,30.4S269.38,410.39,282,424.36Z" fill="#2f2e41"/><path d="M273.77,345.41s-5-10.35,6.62-14.91c0,0,6.86-2.32,9.34,4.51L285,338.16S279.77,343.34,273.77,345.41Z" fill="#2f2e41"/><path d="M282.77,334.75s-.31-1.61,1.14-.42a15.72,15.72,0,0,1,1.19,4.19L283,339.66Z" fill="#fff"/><path d="M286.2,430.29s12.15-8.1,15.1-22.74l-2.18-6.7s-9.84,20-17.69,26.1Z" fill="#2f2e41"/><path d="M413.68,231.57s-6.1,2.25-9.68,6.47a2,2,0,0,0,.38,2.93c3.43,2.5,11.2,9.16,14.06,20,0,0,1.66,3.31,4.76.62,0,0,5.65-3.79,9.58-3.79,0,0-6-1.45-14.82-17.87l-4-5.23a2,2,0,0,1-.41-1.35Z" fill="#0071f2"/><path d="M413.68,231.57s-6.1,2.25-9.68,6.47a2,2,0,0,0,.38,2.93c3.43,2.5,11.2,9.16,14.06,20,0,0,1.66,3.31,4.76.62,0,0,5.65-3.79,9.58-3.79,0,0-6-1.45-14.82-17.87l-4-5.23a2,2,0,0,1-.41-1.35Z" fill="#fff" opacity="0.2"/><path d="M442.38,250.41a40.32,40.32,0,0,1,8.56,10.35s.85,2.32,4.19,2.71a3.4,3.4,0,0,1,2.14,1.08c.78.85,1.22,2.23-.68,4.21,0,0-7.58,7.33-7.37,11.35a124,124,0,0,0-6.84-21.84,7,7,0,0,1-.41-3.86Z" fill="#0071f2"/><path d="M442.38,250.41a40.32,40.32,0,0,1,8.56,10.35s.85,2.32,4.19,2.71a3.4,3.4,0,0,1,2.14,1.08c.78.85,1.22,2.23-.68,4.21,0,0-7.58,7.33-7.37,11.35a124,124,0,0,0-6.84-21.84,7,7,0,0,1-.41-3.86Z" fill="#fff" opacity="0.2"/><path d="M433.71,190.17s-3-2.31.7-5.31c0,0,3.23-2.55,11.79,1.85l7,3.71a1,1,0,0,0,1.43-.83c.05-2.85-.9-8.94-9.63-11.21,0,0-17.57-4.86-27.28,2.78,0,0-12.49,5.78-10.18,28,0,0,1.39,15.72,6.48,17.57a11.74,11.74,0,0,0,6.47-7.4l2.54.46s-.23,16.19,14.57,21.28c0,0,15.73,5.08,18.73-13.42l1.85-4.62s-5.08-5.32-9.71-1.16c0,0-4.86,4.4-8.79-.23,0,0-8.74-7-8.36-18a5.63,5.63,0,0,1,.43-1.93c.77-1.84,2.91-5.27,8.4-6.43C440.19,195.26,435.79,192.72,433.71,190.17Z" fill="#2f2e41"/><ellipse cx="421.49" cy="211.95" rx="5.03" ry="8.21" transform="translate(-46.58 152.88) rotate(-19.5)" fill="#f9b499"/><path d="M480.05,429.5s-1.52,2.83,4.21,2.28a2.29,2.29,0,0,1-.36-2.7,19.44,19.44,0,0,1-2.33.36C481,429.48,480.53,429.5,480.05,429.5Z" fill="#f9b499"/><path d="M486.88,412.85l10.58-50.47,5.66-25.07s-4.94-3.52-14.51.44a163.24,163.24,0,0,0-10.38,23,128.92,128.92,0,0,0-6.68,24.58A120.17,120.17,0,0,0,470,406.6a11.53,11.53,0,0,1,3.42-.76,8.7,8.7,0,0,1,6.54,2Z" fill="#0071f2"/><path d="M486.88,412.85l10.58-50.47,5.66-25.07s-4.94-3.52-14.51.44a163.24,163.24,0,0,0-10.38,23,128.92,128.92,0,0,0-6.68,24.58A120.17,120.17,0,0,0,470,406.6a11.53,11.53,0,0,1,3.42-.76,8.7,8.7,0,0,1,6.54,2Z" fill="#fff" opacity="0.2"/><path d="M453.14,272.21s11.25,16.07,13.53,52.08c0,0,2.07,45.95,7,64.58l4.35,17.59s-4.76-1.38-8.07.14c0,0-5.24-63.85-10.56-97.62Z" fill="#0071f2"/><path d="M499.91,336.12s-2.63,12.21-10.26,20c0,0-5.38,4.69,7.81,6.25,0,0,10.92,5.55,13.87,14.57a16.37,16.37,0,0,0,6,6.32,15.47,15.47,0,0,1,4.56,3.71,16.3,16.3,0,0,1,3.22,6.5,36.33,36.33,0,0,0,1.07,4l4.45,12.75c0-2.11-.21-4.61-.35-6.89a86.53,86.53,0,0,0-6.81-28.79c-1.83-5.46-3.64-11-5.86-16.79-1.93-5-4.11-10-6.11-14.6q-1.23-.57-2.58-1.35a27.1,27.1,0,0,1-4.06-2.88,4.35,4.35,0,0,1-.48-.48A7,7,0,0,0,499.91,336.12Z" fill="#0071f2"/><path d="M350.71,361.42A18.73,18.73,0,0,1,345.29,347l.84-3S349.8,357.51,350.71,361.42Z" fill="#0071f2"/><path d="M296.4,344.78s-7.18,6.07-2.48,27.59c0,0,9.65,61,20.69,72a16.59,16.59,0,0,1,10.76-3.59s14.91-.27,9.66-8.28c0,0-8-15.73-6.9-21.8,0,0,2.21-6.07-3-7.17,0,0-1.66-1.38-1.38-5.8L325,355.68s-1-27.18-16.72-20.28C308.27,335.4,300.54,335.67,296.4,344.78Z" fill="#0071f2"/><path d="M296.4,344.78s-7.18,6.07-2.48,27.59c0,0,9.65,61,20.69,72a16.59,16.59,0,0,1,10.76-3.59s14.91-.27,9.66-8.28A109.29,109.29,0,0,1,330.08,421a30.51,30.51,0,0,1-1.5-12.48,4.5,4.5,0,0,0-1.66-4.22,7,7,0,0,1-3.23-5.73q0-.39,0-.81L325,355.68s-1-27.18-16.72-20.28C308.27,335.4,300.54,335.67,296.4,344.78Z" fill="#0071f2"/><path d="M296.4,344.78s-7.18,6.07-2.48,27.59c0,0,9.65,61,20.69,72a16.59,16.59,0,0,1,10.76-3.59s14.91-.27,9.66-8.28A109.29,109.29,0,0,1,330.08,421a30.51,30.51,0,0,1-1.5-12.48,4.5,4.5,0,0,0-1.66-4.22,7,7,0,0,1-3.23-5.73q0-.39,0-.81L325,355.68s-1-27.18-16.72-20.28C308.27,335.4,300.54,335.67,296.4,344.78Z" opacity="0.3"/><path d="M282.05,438.34s-8.64,11.94.9,20.71a6,6,0,0,1,1.77,2.81c1.16,4.15,4.27,14.59,7.32,18.47a6.65,6.65,0,0,1,1.32,3.26c.69,5.24,2.66,18.45,5.71,23.79a4.42,4.42,0,0,1,.51,3.12c-.82,3.81-2.54,12.83-1.77,18.63a7.61,7.61,0,0,1-.16,2.93c-2,7.85-10.91,43.27-10.91,55,0,0-1.38,4.14,1.93,6.9.28.83,1.66,2.48-.55,3.86,0,0-2.48,3.59,3.59,3.86,0,0,22.63,1.11,21.25-7.45,0,0-1.38-2.2,1.1-4.69,0,0,3.31-2.48-.55-7.72,0,0-1.38-1.11.27-7.18,0,0,4.42-26.49,11.59-38.08,0,0,4.41-4.58,4.7-23.18L332.55,485l-5.8-29.52s-12.69.27-41.39-14.35C285.36,441.1,284.68,441.35,282.05,438.34Z" fill="#2f2e41"/><path d="M325.31,462.34a26,26,0,0,0,2.45,10.41,5.58,5.58,0,0,1,.47,2.05l.16,6.84a5.7,5.7,0,0,0,.93,3.11c.86,1.25,2.45,2.42,5.3,1.4a3.31,3.31,0,0,0,5,1,4.49,4.49,0,0,0,3.4,1.59,2,2,0,0,0,2-2h0s3.53.14,3.89-6.27a19.41,19.41,0,0,0-.95-6.93c-1.24-3.91-3.85-11.16-7.08-14.54,0,0-1.66,3.52-8.28,2.28A13.91,13.91,0,0,0,325.31,462.34Z" fill="#f9b499"/><path d="M337.85,452.49s6.7,4.27,1.74,8c0,0-2.07,1.66-7,.83,0,0-3.93-.41-6,.83,0,0-2.69,3.52-3.52-4.35Z" fill="#0071f2"/><path d="M321.9,456.89,314.33,444s3.68-4.17,10.85-3.62c0,0,6.22-.64,8.91-2.09l4.76,11.81a1.84,1.84,0,0,1-1,2.43l-13.22,5.29A2.22,2.22,0,0,1,321.9,456.89Z" fill="#0071f2"/><path d="M321.9,456.89,314.33,444s3.68-4.17,10.85-3.62c0,0,6.22-.64,8.91-2.09l4.76,11.81a1.84,1.84,0,0,1-1,2.43l-13.22,5.29A2.22,2.22,0,0,1,321.9,456.89Z" opacity="0.2"/><path d="M337.93,637.86c-7.24,1.45-25.46-2.49-25.46-2.49-13.6-3.19-26.81-10.07-27.68-10.53l0-.07c2.22-3.52.58-7.83.58-7.83-2.26-6.2.64-8.05.64-8.05,2.72-2.07,3.46-.92,3.61.21a2.09,2.09,0,0,0,1.14,1.62c7.27,3.5,12.85.78,12.85.78,1.66-5.26,7.84-5.1,7.84-5.1,4.43-1.29,5.78,1.69,6.11,4.54a19.28,19.28,0,0,0,5,11.27,55.54,55.54,0,0,0,14.2,10.26C340.62,636.41,337.93,637.86,337.93,637.86Z" fill="#0071f2"/><path d="M337.93,637.86c-7.24,1.45-25.46-2.49-25.46-2.49-13.6-3.19-26.81-10.07-27.68-10.53l0-.07c2.22-3.52.58-7.83.58-7.83-2.26-6.2.64-8.05.64-8.05,2.72-2.07,3.46-.92,3.61.21a2.09,2.09,0,0,0,1.14,1.62c7.27,3.5,12.85.78,12.85.78,1.66-5.26,7.84-5.1,7.84-5.1,4.43-1.29,5.78,1.69,6.11,4.54a19.28,19.28,0,0,0,5,11.27,55.54,55.54,0,0,0,14.2,10.26C340.62,636.41,337.93,637.86,337.93,637.86Z" opacity="0.3"/><path d="M289.85,609.86s-3.59,7,1.13,8.15c0,0,2.28.66,5.8-1.82a10.13,10.13,0,0,1,1.87-1.11l.54-.2a7,7,0,0,1,2-.29c.7,0,1.89-.47,2.35-3.1C303.58,611.49,296.1,614.48,289.85,609.86Z" fill="#d1d3d4"/><path d="M273.77,345.41s-7.24,3.31-20.28,8.27c0,0-18.63,4.77-17.8,33.95,0,0,3.72,30,1.24,42,0,0-3.73,30.43,18.21,27.12,0,0,10.56-.62,15.73.82,0,0,9.94,3.73,10.77-6l3.72-10.48a14.22,14.22,0,0,1-2.88-2.31.93.93,0,0,1-.17-1c.71-1.51,2.73-5.57,4.37-6.64a.37.37,0,0,0,0-.61L281.43,427l.36-3.25s-9-7.69-8.7-39.42c0,0-.48-13,5.17-31.21a38,38,0,0,1,4.13-9,42,42,0,0,1,7.25-9S280.15,341.44,273.77,345.41Z" fill="#0071f2"/><g opacity="0.3"><path d="M237.6,414.57l-.06-1c.07,0,7.2-.47,12.22-4.69l.63.75C245.12,414.09,237.9,414.55,237.6,414.57Z"/></g><g opacity="0.3"><path d="M243.56,411.48c-3.17-15.85-1.72-31.22-1.24-36.27.2-2.12.3-4.29.39-6.4v-.15c.38-8.7,2.83-9.83,3.11-9.93l.35.91s-2.14,1.06-2.48,9.06v.15c-.09,2.12-.18,4.31-.39,6.46-.47,5-1.92,20.27,1.22,36Z"/></g><g opacity="0.3"><path d="M264.19,392.11c-2.28-8.92-2.11-34.47-2.1-35.55h1c0,.27-.19,26.51,2.06,35.31Z"/></g><g opacity="0.3"><path d="M251,407.09l-1-.19c0-.08,1.6-7.85,8.13-8.72.13-.05,4.82-1.26,10.16,3l-.61.76c-4.93-3.95-9.32-2.84-9.36-2.83C252.44,399.92,251,407,251,407.09Z"/></g><g opacity="0.3"><path d="M251.36,418.42l-.91-.34c.14-.37,3.61-9.05,18.93-11.56l.16,1C254.81,409.9,251.4,418.34,251.36,418.42Z"/></g><g opacity="0.3"><path d="M265.61,413a4.14,4.14,0,0,1-1.46-3.63l1,.14a3.12,3.12,0,0,0,1.1,2.73Z"/></g><g opacity="0.3"><path d="M263.17,444.18c-.36,0-.58,0-.63,0l.07-1c.06,0,6.08.37,10.07-3.51,2.56-2.49,3.77-6.19,3.58-11l1,0c.2,5.1-1.11,9.05-3.89,11.74C269.78,443.85,264.89,444.18,263.17,444.18Z"/></g><path d="M358.25,407.84s10.84,8.3,14.48,8.48c0,0-4.68,10.84-3,14.3,0,0-2.73.91-6.19-2.18l-3.05.11Z" fill="#0071f2"/><path d="M358.25,407.84s10.84,8.3,14.48,8.48c0,0-4.68,10.84-3,14.3,0,0-2.73.91-6.19-2.18l-3.05.11Z" opacity="0.3"/><path d="M377.38,402.76l-.67,4.37a5.14,5.14,0,0,1-.63,2.17c-2.42,4.35-11.49,21.82-3.17,24.9a3.68,3.68,0,0,0,4.55,2.27s-.5,3.35,1.45,4.35a3.68,3.68,0,0,0,4.55-1.45s-.41,2.9,3.11,2.9c0,0,3.93,0,6-7.45,0,0,3.73,1.24,6.42-4.56a20.13,20.13,0,0,0,3.23-11.7,13.81,13.81,0,0,0-3.42-7.83c-1.64-1.93-4.32-5.62-3.88-8.81C394.92,401.92,385.45,399.24,377.38,402.76Z" fill="#f9b499"/><path d="M370.36,291.52c2.66-35.49,20.37-47,29.18-50.13a7.59,7.59,0,0,1,8.66,2.7c13.41,18.13,3.64,52.94-1.89,68.77a53.38,53.38,0,0,0-3,16.27c-.39,15.52-3.8,39-4.83,45.77a9.16,9.16,0,0,0,.12,3.46c2.05,8.37,1.45,17.41.9,22.15a3,3,0,0,1-3.52,2.63c-8.89-1.48-18.77,1.36-23.67,3.09a2.31,2.31,0,0,1-3.07-2.2Z" fill="#0071f2"/><path d="M370.36,291.52c2.66-35.49,20.37-47,29.18-50.13a7.59,7.59,0,0,1,8.66,2.7c13.41,18.13,3.64,52.94-1.89,68.77a53.38,53.38,0,0,0-3,16.27c-.39,15.52-3.8,39-4.83,45.77a9.16,9.16,0,0,0,.12,3.46c2.05,8.37,1.45,17.41.9,22.15a3,3,0,0,1-3.52,2.63c-8.89-1.48-18.77,1.36-23.67,3.09a2.31,2.31,0,0,1-3.07-2.2Z" opacity="0.2"/><path d="M533.08,333.75s-2.14,1.43-3.18,7.41a39.69,39.69,0,0,1-7.57-13.91Z" fill="#f7a48b"/><path d="M548.4,309.72c0,13.27-6.86,24-15.32,24-4.64,0-8.79-3.22-11.61-8.34,0,0,0,0,0-.08a30.73,30.73,0,0,1-1.78-5l-.25.15a35.6,35.6,0,0,1-1.64-10.8c0-13.25,6.86-24,15.32-24,4.52,0,8.59,3.07,11.39,8A32.65,32.65,0,0,1,548.4,309.72Z" fill="#f9b499"/><path d="M546.79,348.54a2.05,2.05,0,0,1-1,.7c-6,1.83-16-6.52-16-6.52a4,4,0,0,1,.06-.51,16.47,16.47,0,0,1,1.24-5.33c0-.17.15-.34.21-.5a6.4,6.4,0,0,1,1.51-2.36l.27-.27c8.46,0,15.32-10.76,15.32-24a32.65,32.65,0,0,0-3.93-16.05l.85-.85c7.29,8,6.42,20.13,6.42,20.13a112.31,112.31,0,0,0,.11,11.45c.1,2,.32,4,.57,5.93C553.59,339.56,548.35,346.66,546.79,348.54Z" fill="#2f2e41"/><path d="M484,331.65s-4.09,9.23,4.61,6.1c0,0,10.7-4.7,15.92.87,0,0,7.2,8,16.16,4.26a1.18,1.18,0,0,0,.37-.24c.93-.9,5-5.56-1.21-12.73,0,0-10.79-13.22,2.09-20.18,0,0,4.17,1,7-12.88,0,0,2.43-5.22,9.05-3.48,0,0,4.48,2.79,6.91.11a2.7,2.7,0,0,0,.56-2.5c-.69-2.5-3.92-7.7-18.61-8.75,0,0-21.23-2.09-26.11,14.27Z" fill="#2f2e41"/><ellipse cx="518.28" cy="316.16" rx="3.31" ry="4.7" fill="#f9b499"/><path d="M478.05,406.46s15.86,9.49,13.77,17.41c0,0-3.33,8.55-6.67,8.34,0,0-2.7-.84-1.25-3.13,0,0-4.37,1.25-6.46-.62l-6.87-14.39L470,406.6S471.78,404.89,478.05,406.46Z" fill="#f9b499"/><path d="M477.56,427.62s1.2,2.28,4.89,1.75a4.92,4.92,0,0,0,3-1.57,9.11,9.11,0,0,0,2.23-5" fill="none" stroke="#f7a48b" stroke-miterlimit="10"/><path d="M474,419s2.65-10.3,5.76-9.68c0,0,2.27-.62.41,3.1,0,0-3.73,6.42-3.52,9.32" fill="none" stroke="#f7a48b" stroke-miterlimit="10"/><path d="M478.88,423.85s3.72-11.59,6.83-11c0,0,2.27-.62.41,3.1a14.08,14.08,0,0,0-2.56,5.31,9.41,9.41,0,0,1-1.65,4.18,3.17,3.17,0,0,1-1.86,1.41" fill="none" stroke="#f7a48b" stroke-miterlimit="10"/><path d="M476.6,421s2.9-11.18,6-10.56c0,0,2.49.83.62,4.56a18.4,18.4,0,0,0-4.14,9.31" fill="none" stroke="#f7a48b" stroke-miterlimit="10"/><path d="M470.57,414.07s3.75,5.84,7.5,8.76c0,0,4.17,3.54,1,5.42,0,0-1.25,1-3.54-1.25l-4.8-4.17Z" fill="#f7a48b"/><path d="M372.91,434.2a33.9,33.9,0,0,1,2.91-11.66" fill="none" stroke="#f7a48b" stroke-miterlimit="10"/><path d="M377.46,436.47a34.25,34.25,0,0,1,3.35-11.94" fill="none" stroke="#f7a48b" stroke-miterlimit="10"/><path d="M383.46,439.37a30.83,30.83,0,0,1,3.13-12.44" fill="none" stroke="#f7a48b" stroke-miterlimit="10"/><path d="M392.57,434.82s-2.56-2.21,1-9" fill="none" stroke="#f7a48b" stroke-miterlimit="10"/><line x1="334.62" y1="486.15" x2="333.69" y2="474.93" fill="none" stroke="#f7a48b" stroke-miterlimit="10"/><line x1="339.59" y1="487.18" x2="338.58" y2="474.48" fill="none" stroke="#f7a48b" stroke-miterlimit="10"/><line x1="344.97" y1="486.77" x2="343.42" y2="474.93" fill="none" stroke="#f7a48b" stroke-miterlimit="10"/><path d="M336.56,320.79l3.65-6.45-3.86-11.23A42.17,42.17,0,0,0,336.56,320.79Z" fill="#f7a48b"/><ellipse cx="346.78" cy="293.83" rx="22.35" ry="14.25" transform="matrix(0.13, -0.99, 0.99, 0.13, 9.37, 598.37)" fill="#f9b499"/><path d="M300,292.9s-1.66,17.94,7.17,19.05l11,2.59,8.39,1s5.88,1.62,5.24-6.81c0,0-1.13-4.48,1.05-5.76,0,0,4.93,2.58,8.52-5.42a16.29,16.29,0,0,1,8-7.18l11-5.79s1.66-16.56-6.35-19.6a89.72,89.72,0,0,0-28.14-8.83,18.58,18.58,0,0,0-11,3.87s-4.42-.83-9.38,8.83C305.51,268.9,298.61,279.93,300,292.9Z" fill="#2f2e41"/><path d="M336.56,338.25c-4.91,6.25-13.84-9.63-13.84-9.63-3.61-6-14.45-11.74-14.45-11.74-3.79-4.7-2.27-6.68-.45-7.52a5.53,5.53,0,0,1,4.75.18c2.11,1.06,5.55,3.51,9.55,9.14,0,0,5.11,10.84,11.73,10.54l2.71-8.43s11.14,10.53,12.64,13.84c0,0-.9,1.81-6.32-.6C342.88,334,339.87,334,336.56,338.25Z" fill="#0071f2"/></svg>